<svg xmlns="http://www.w3.org/2000/svg" xmlns:xlink="http://www.w3.org/1999/xlink" width="512" zoomAndPan="magnify" viewBox="0 0 384 383.999986" height="512" preserveAspectRatio="xMidYMid meet" version="1.0"><defs><clipPath id="21434f35f8"><path d="M 0.0664062 74.707031 L 383.933594 74.707031 L 383.933594 305.1875 L 0.0664062 305.1875 Z M 0.0664062 74.707031 " clip-rule="nonzero"/></clipPath></defs><g clip-path="url(#21434f35f8)"><path fill="#38bdf8" d="M 192 74.707031 C 140.816406 74.707031 108.828125 100.316406 96.03125 151.53125 C 115.226562 125.921875 137.617188 116.320312 163.210938 122.722656 C 177.8125 126.371094 188.246094 136.976562 199.796875 148.707031 C 218.613281 167.824219 240.394531 189.945312 287.96875 189.945312 C 339.148438 189.945312 371.136719 164.335938 383.933594 113.117188 C 364.742188 138.726562 342.347656 148.332031 316.757812 141.929688 C 302.15625 138.28125 291.71875 127.671875 280.167969 115.941406 C 261.351562 96.828125 239.570312 74.707031 192 74.707031 Z M 96.03125 189.945312 C 44.851562 189.945312 12.863281 215.554688 0.0664062 266.773438 C 19.257812 241.164062 41.652344 231.5625 67.242188 237.964844 C 81.84375 241.621094 92.28125 252.21875 103.832031 263.949219 C 122.648438 283.0625 144.429688 305.1875 192 305.1875 C 243.183594 305.1875 275.171875 279.578125 287.96875 228.359375 C 268.773438 253.96875 246.382812 263.574219 220.789062 257.171875 C 206.1875 253.519531 195.753906 242.914062 184.203125 231.183594 C 165.386719 212.070312 143.605469 189.945312 96.03125 189.945312 Z M 96.03125 189.945312 " fill-opacity="1" fill-rule="evenodd"/></g></svg>